<?xml version="1.0" encoding="UTF-8" standalone="no"?><svg xmlns="http://www.w3.org/2000/svg" xmlns:xlink="http://www.w3.org/1999/xlink" contentScriptType="application/ecmascript" contentStyleType="text/css" height="2349px" preserveAspectRatio="none" style="width:1956px;height:2349px;" version="1.1" viewBox="0 0 1956 2349" width="1956px" zoomAndPan="magnify"><defs/><g><!--cluster Unsafe--><rect fill="#FFFFFF" height="1293" rx="37.5" ry="37.5" style="stroke: #000000; stroke-width: 4.5;" width="1320" x="159" y="1023"/><rect fill="#FFFFFF" height="1154.8184" rx="37.5" ry="37.5" style="stroke: #FFFFFF; stroke-width: 3.0;" width="1302" x="168" y="1152.1816"/><line style="stroke: #000000; stroke-width: 4.5;" x1="159" x2="1479" y1="1143.1816" y2="1143.1816"/><line style="stroke: #000000; stroke-width: 4.5;" x1="159" x2="1479" y1="1095.9609" y2="1095.9609"/><text fill="#000000" font-family="SFProDisplay-Medium" font-size="36" lengthAdjust="spacingAndGlyphs" textLength="111" x="654" y="1069.2773">Unsafe</text><text fill="#000000" font-family="SFProDisplay-Regular" font-size="27" lengthAdjust="spacingAndGlyphs" textLength="330" x="174" y="1129.1689">Unapplicable in integrations</text><rect fill="#FFFFFF" height="150" rx="37.5" ry="37.5" style="stroke: #000000; stroke-width: 4.5;" width="393" x="184.5" y="1575"/><line style="stroke: #000000; stroke-width: 4.5;" x1="184.5" x2="577.5" y1="1647.9609" y2="1647.9609"/><text fill="#000000" font-family="SFProDisplay-Medium" font-size="36" lengthAdjust="spacingAndGlyphs" textLength="114" x="324" y="1624.2773">Default</text><text fill="#000000" font-family="SFProDisplay-Regular" font-size="27" lengthAdjust="spacingAndGlyphs" textLength="333" x="199.5" y="1688.6689">Waiting to be acknowledged</text><rect fill="#FFFFFF" height="150" rx="37.5" ry="37.5" style="stroke: #000000; stroke-width: 4.5;" width="279" x="184.5" y="2142"/><line style="stroke: #000000; stroke-width: 4.5;" x1="184.5" x2="463.5" y1="2214.9609" y2="2214.9609"/><text fill="#000000" font-family="SFProDisplay-Medium" font-size="36" lengthAdjust="spacingAndGlyphs" textLength="150" x="249" y="2191.2773">Outdated</text><text fill="#000000" font-family="SFProDisplay-Regular" font-size="27" lengthAdjust="spacingAndGlyphs" textLength="219" x="199.5" y="2255.6689">Removed from disk</text><ellipse cx="381" cy="1176" fill="#000000" rx="30" ry="30" style="stroke: none; stroke-width: 3.0;"/><path d="M568.5,2185.5 L568.5,2205 L463.5468,2217 L568.5,2229 L568.5,2247.7207 A0,0 0 0 0 568.5,2247.7207 L1453.5,2247.7207 A0,0 0 0 0 1453.5,2247.7207 L1453.5,2215.5 L1423.5,2185.5 L568.5,2185.5 A0,0 0 0 0 568.5,2185.5 " fill="#FFFFFF" style="stroke: #FFFFFF; stroke-width: 3.0;"/><path d="M1423.5,2185.5 L1423.5,2215.5 L1453.5,2215.5 L1423.5,2185.5 " fill="#FFFFFF" style="stroke: #FFFFFF; stroke-width: 3.0;"/><text fill="#000000" font-family="SFProDisplay-Light" font-size="27" lengthAdjust="spacingAndGlyphs" textLength="822" x="586.5" y="2226.208">After some while, unsafe phone numbers will be removed from the disk.</text><ellipse cx="183" cy="441" fill="#000000" rx="30" ry="30" style="stroke: none; stroke-width: 3.0;"/><ellipse cx="48" cy="2217" fill="none" rx="30" ry="30" style="stroke: #000000; stroke-width: 3.0;"/><ellipse cx="49.5" cy="2218.5" fill="#000000" rx="18" ry="18" style="stroke: none; stroke-width: 3.0;"/><rect fill="#FFFFFF" height="834.1816" rx="37.5" ry="37.5" style="stroke: #000000; stroke-width: 4.5;" width="1104" x="432" y="24"/><rect fill="#FFFFFF" height="696" rx="37.5" ry="37.5" style="stroke: #FFFFFF; stroke-width: 3.0;" width="1086" x="441" y="153.1816"/><line style="stroke: #000000; stroke-width: 4.5;" x1="432" x2="1536" y1="144.1816" y2="144.1816"/><line style="stroke: #000000; stroke-width: 4.5;" x1="432" x2="1536" y1="96.9609" y2="96.9609"/><text fill="#000000" font-family="SFProDisplay-Medium" font-size="36" lengthAdjust="spacingAndGlyphs" textLength="69" x="949.5" y="73.2773">Safe</text><text fill="#000000" font-family="SFProDisplay-Regular" font-size="27" lengthAdjust="spacingAndGlyphs" textLength="264" x="447" y="122.6689">Available to be utilized</text><rect fill="#FFFFFF" height="150" rx="37.5" ry="37.5" style="stroke: #000000; stroke-width: 4.5;" width="381" x="688.5" y="354.1816"/><line style="stroke: #000000; stroke-width: 4.5;" x1="688.5" x2="1069.5" y1="427.1426" y2="427.1426"/><text fill="#000000" font-family="SFProDisplay-Medium" font-size="36" lengthAdjust="spacingAndGlyphs" textLength="114" x="822" y="403.459">Default</text><text fill="#000000" font-family="SFProDisplay-Regular" font-size="27" lengthAdjust="spacingAndGlyphs" textLength="321" x="703.5" y="467.8506">Neither primary nor ignored</text><rect fill="#FFFFFF" height="150" rx="37.5" ry="37.5" style="stroke: #000000; stroke-width: 4.5;" width="396" x="465" y="663.1816"/><line style="stroke: #000000; stroke-width: 4.5;" x1="465" x2="861" y1="736.1426" y2="736.1426"/><text fill="#000000" font-family="SFProDisplay-Medium" font-size="36" lengthAdjust="spacingAndGlyphs" textLength="120" x="603" y="712.459">Primary</text><text fill="#000000" font-family="SFProDisplay-Regular" font-size="27" lengthAdjust="spacingAndGlyphs" textLength="336" x="480" y="776.8506">Deduced in canonicalization</text><rect fill="#FFFFFF" height="150" rx="37.5" ry="37.5" style="stroke: #000000; stroke-width: 4.5;" width="504" x="918" y="663.1816"/><line style="stroke: #000000; stroke-width: 4.5;" x1="918" x2="1422" y1="736.1426" y2="736.1426"/><text fill="#000000" font-family="SFProDisplay-Medium" font-size="36" lengthAdjust="spacingAndGlyphs" textLength="123" x="1108.5" y="712.459">Ignored</text><text fill="#000000" font-family="SFProDisplay-Regular" font-size="27" lengthAdjust="spacingAndGlyphs" textLength="444" x="933" y="776.8506">Visible to user interfaces but not used</text><ellipse cx="879" cy="213.1816" fill="#000000" rx="30" ry="30" style="stroke: none; stroke-width: 3.0;"/><!--link *start*Safe to d1--><path d="M879,243.2155 C879,267.9445 879,304.3507 879,338.4103 " fill="none" id="*start*Safe-d1" style="stroke: #000000; stroke-width: 3.0;"/><polygon fill="#000000" points="879,353.8438,891,326.8438,879,338.8438,867,326.8438,879,353.8438" style="stroke: #000000; stroke-width: 3.0;"/><!--link d1 to Primary--><path d="M710.5557,504.2374 C691.5903,519.4189 674.8575,537.2887 663,558.1816 C647.8947,584.797 644.346,617.3899 645.723,647.4922 " fill="none" id="d1-Primary" style="stroke: #000000; stroke-width: 3.0;"/><polygon fill="#000000" points="646.8567,662.962,656.8505,635.1569,645.76,648.0022,632.9147,636.9117,646.8567,662.962" style="stroke: #000000; stroke-width: 3.0;"/><text fill="#000000" font-family="SFProDisplay-Regular" font-size="39" lengthAdjust="spacingAndGlyphs" textLength="144" x="666" y="598.3154">prioritize</text><!--link Primary to d1--><path d="M765.3486,662.7115 C782.8776,646.4797 799.6971,628.3789 813,609.1816 C831.7356,582.1444 845.8419,549.1564 856.1007,518.842 " fill="none" id="Primary-d1" style="stroke: #000000; stroke-width: 3.0;"/><polygon fill="#000000" points="860.8311,504.2128,841.1057,526.2108,856.2158,518.4852,863.9414,533.5952,860.8311,504.2128" style="stroke: #000000; stroke-width: 3.0;"/><text fill="#000000" font-family="SFProDisplay-Regular" font-size="39" lengthAdjust="spacingAndGlyphs" textLength="216" x="846" y="598.3154">overprioritize</text><!--link d1 to Ignored--><path d="M1015.32,504.4225 C1037.547,520.3489 1059.1146,538.4011 1077,558.1816 C1100.7309,584.4271 1120.1718,617.8396 1135.0296,648.7339 " fill="none" id="d1-Ignored" style="stroke: #000000; stroke-width: 3.0;"/><polygon fill="#000000" points="1141.5327,662.7169,1141.027,633.1747,1135.2069,649.116,1119.2656,643.296,1141.5327,662.7169" style="stroke: #000000; stroke-width: 3.0;"/><text fill="#000000" font-family="SFProDisplay-Regular" font-size="39" lengthAdjust="spacingAndGlyphs" textLength="126" x="1113" y="598.3154">neglect</text><!--link *start*Unsafe to d2--><path d="M381,1207.1004 C381,1277.5746 381,1451.6649 381,1559.4012 " fill="none" id="*start*Unsafe-d2" style="stroke: #000000; stroke-width: 3.0;"/><polygon fill="#000000" points="381,1574.7951,393,1547.7951,381,1559.7951,369,1547.7951,381,1574.7951" style="stroke: #000000; stroke-width: 3.0;"/><!--link d2 to Outdated--><path d="M373.4307,1725.2931 C363.0399,1828.6563 344.3757,2014.3152 333.1941,2125.5435 " fill="none" id="d2-Outdated" style="stroke: #000000; stroke-width: 3.0;"/><polygon fill="#000000" points="331.6005,2141.3955,346.2411,2115.7313,333.1009,2126.4707,322.3615,2113.3306,331.6005,2141.3955" style="stroke: #000000; stroke-width: 3.0;"/><text fill="#000000" font-family="SFProDisplay-Regular" font-size="39" lengthAdjust="spacingAndGlyphs" textLength="102" x="357" y="1948.1338">scoop</text><!--link *start to Safe--><path d="M213.4221,441 C253.1325,441 328.05,441 416.1384,441 " fill="none" id="*start-Safe" style="stroke: #000000; stroke-width: 3.0;"/><polygon fill="#000000" points="431.5545,441,404.5545,429,416.5545,441,404.5545,453,431.5545,441" style="stroke: #000000; stroke-width: 3.0;"/><text fill="#000000" font-family="SFProDisplay-Regular" font-size="39" lengthAdjust="spacingAndGlyphs" textLength="108" x="268.5" y="421.1338">create</text><!--link Safe to Safe--><path d="M1536.3897,356.8056 C1599.8154,372.4587 1641,400.5234 1641,441 C1641,477.9981 1606.59,504.6261 1552.2369,520.884 " fill="none" id="Safe-Safe" style="stroke: #000000; stroke-width: 3.0;"/><polygon fill="#000000" points="1536.3897,525.1944,1565.5928,529.6866,1550.8637,521.2571,1559.2932,506.5281,1536.3897,525.1944" style="stroke: #000000; stroke-width: 3.0;"/><text fill="#000000" font-family="SFProDisplay-Regular" font-size="39" lengthAdjust="spacingAndGlyphs" textLength="261" x="1659" y="455.6338">extend duration</text><!--link Safe to Unsafe--><path d="M777.5439,858.1644 C767.8338,888.1005 759.4635,918.2247 753,948 C748.1916,970.1508 742.9677,978.6744 753,999 C756.3542,1005.7958 760.1085,1012.4029 764.2043,1018.8201 C764.7163,1019.6223 765.2336,1020.4215 765.7562,1021.2177 C766.0175,1021.6158 766.28,1022.0132 766.5439,1022.4098 " fill="none" id="Safe-Unsafe" style="stroke: #000000; stroke-width: 3.0;"/><polygon fill="#000000" points="766.5439,1022.4098,761.5793,993.2833,758.2353,1009.9211,741.5975,1006.5771,766.5439,1022.4098" style="stroke: #000000; stroke-width: 3.0;"/><text fill="#000000" font-family="SFProDisplay-Regular" font-size="39" lengthAdjust="spacingAndGlyphs" textLength="318" x="756" y="988.1338">invalidate / timeout</text><!--link Unsafe to Safe--><path d="M1081.4018,1022.211 C1082.3711,1019.644 1083.3021,1017.0708 1084.1915,1014.4935 C1085.9703,1009.339 1087.5823,1004.1685 1089,999 C1100.031,958.7835 1104.549,916.6206 1104.405,874.2531 " fill="none" id="Unsafe-Safe" style="stroke: #000000; stroke-width: 3.0;"/><polygon fill="#000000" points="1104.1446,858.6378,1092.5976,885.8346,1104.3953,873.6357,1116.5942,885.4335,1104.1446,858.6378" style="stroke: #000000; stroke-width: 3.0;"/><text fill="#000000" font-family="SFProDisplay-Regular" font-size="39" lengthAdjust="spacingAndGlyphs" textLength="222" x="1101" y="988.1338">acknowledge</text><!--link *end to Outdated--><path d="M93.8658,2217 C123.8472,2217 153.8286,2217 183.81,2217 " fill="none" id="*end-Outdated" style="stroke: #000000; stroke-width: 3.0;"/><polygon fill="#000000" points="78.1875,2217,105.1875,2229,93.1875,2217,105.1875,2205,78.1875,2217" style="stroke: #000000; stroke-width: 3.0;"/><!--
@startuml

scale 3.0

skinparam RoundCorner false
skinparam DefaultTextAlignment center
skinparam BackgroundColor transparent
skinparam Monochrome true
skinparam Shadowing false

skinparam Arrow {
  Color black
  LollipopColor black
  FontName "SFProDisplay-Regular"
}

skinparam State {
  FontName "SFProDisplay-Medium"
  FontSize 12
  BackgroundColor white
  BorderColor black
  StartColor black
  EndColor black
}

skinparam StateAttribute {
  FontName "SFProDisplay-Regular"
  FontSize 9
  FontColor black
}

skinparam Note {
  FontName "SFProDisplay-Light"
  FontSize 9
  BorderColor transparent
  BackgroundColor transparent
}

Safe : Available to be utilized
Unsafe : Unapplicable in integrations

state Safe {
  state "Default" as d1 : Neither primary nor ignored
  Primary : Deduced in canonicalization
  Ignored : Visible to user interfaces but not used

  [*] - -> d1
  d1 - -> Primary : prioritize
  Primary - -> d1 : overprioritize
  d1 - -> Ignored : neglect
}

state Unsafe {
  state "Default" as d2 : Waiting to be acknowledged
  Outdated : Removed from disk

  [*] - -> d2
  d2 - -> Outdated : scoop

  note right of Outdated : After some while, unsafe phone numbers will be removed from the disk.
}

[*] -right-> Safe : create
Safe - -> Safe : extend duration
Safe - -> Unsafe : invalidate / timeout
Unsafe - -> Safe : acknowledge
Outdated -left-> [*]

@enduml

PlantUML version 1.2018.11(Sat Sep 22 19:43:53 EET 2018)
(GPL source distribution)
Java Runtime: Java(TM) SE Runtime Environment
JVM: Java HotSpot(TM) 64-Bit Server VM
Java Version: 10.0.1+10
Operating System: Mac OS X
OS Version: 10.14
Default Encoding: UTF-8
Language: tr
Country: TR
--></g></svg>